<?xml version="1.0" encoding="UTF-8"?>
<svg width="120px" height="120px" viewBox="0 0 120 120" version="1.1" xmlns="http://www.w3.org/2000/svg" xmlns:xlink="http://www.w3.org/1999/xlink">
    <!-- Generator: Sketch 59.1 (86144) - https://sketch.com -->
    <title>Grid</title>
    <desc>Created with Sketch.</desc>
    <g id="Page-1" stroke="none" stroke-width="1" fill="none" fill-rule="evenodd">
        <g id="Grid" fill="#000000" fill-rule="nonzero">
            <path d="M8,4 C8,6.20914 6.20914,8 4,8 C1.79086,8 0,6.20914 0,4 C0,1.79086 1.79086,0 4,0 C6.20914,0 8,1.79086 8,4 Z" id="Path"></path>
            <path d="M24,4 C24,6.20914 22.2091,8 20,8 C17.7909,8 16,6.20914 16,4 C16,1.79086 17.7909,0 20,0 C22.2091,0 24,1.79086 24,4 Z" id="Path"></path>
            <path d="M40,4 C40,6.20914 38.2091,8 36,8 C33.7909,8 32,6.20914 32,4 C32,1.79086 33.7909,0 36,0 C38.2091,0 40,1.79086 40,4 Z" id="Path"></path>
            <path d="M56,4 C56,6.20914 54.2091,8 52,8 C49.7909,8 48,6.20914 48,4 C48,1.79086 49.7909,0 52,0 C54.2091,0 56,1.79086 56,4 Z" id="Path"></path>
            <path d="M72,4 C72,6.20914 70.2091,8 68,8 C65.7909,8 64,6.20914 64,4 C64,1.79086 65.7909,0 68,0 C70.2091,0 72,1.79086 72,4 Z" id="Path"></path>
            <path d="M88,4 C88,6.20914 86.2091,8 84,8 C81.7909,8 80,6.20914 80,4 C80,1.79086 81.7909,0 84,0 C86.2091,0 88,1.79086 88,4 Z" id="Path"></path>
            <path d="M104,4 C104,6.20914 102.209,8 100,8 C97.7909,8 96,6.20914 96,4 C96,1.79086 97.7909,0 100,0 C102.209,0 104,1.79086 104,4 Z" id="Path"></path>
            <path d="M120,4 C120,6.20914 118.209,8 116,8 C113.791,8 112,6.20914 112,4 C112,1.79086 113.791,0 116,0 C118.209,0 120,1.79086 120,4 Z" id="Path"></path>
            <path d="M8,20 C8,22.2091 6.20914,24 4,24 C1.79086,24 0,22.2091 0,20 C0,17.7909 1.79086,16 4,16 C6.20914,16 8,17.7909 8,20 Z" id="Path"></path>
            <path d="M24,20 C24,22.2091 22.2091,24 20,24 C17.7909,24 16,22.2091 16,20 C16,17.7909 17.7909,16 20,16 C22.2091,16 24,17.7909 24,20 Z" id="Path"></path>
            <path d="M40,20 C40,22.2091 38.2091,24 36,24 C33.7909,24 32,22.2091 32,20 C32,17.7909 33.7909,16 36,16 C38.2091,16 40,17.7909 40,20 Z" id="Path"></path>
            <path d="M56,20 C56,22.2091 54.2091,24 52,24 C49.7909,24 48,22.2091 48,20 C48,17.7909 49.7909,16 52,16 C54.2091,16 56,17.7909 56,20 Z" id="Path"></path>
            <path d="M72,20 C72,22.2091 70.2091,24 68,24 C65.7909,24 64,22.2091 64,20 C64,17.7909 65.7909,16 68,16 C70.2091,16 72,17.7909 72,20 Z" id="Path"></path>
            <path d="M88,20 C88,22.2091 86.2091,24 84,24 C81.7909,24 80,22.2091 80,20 C80,17.7909 81.7909,16 84,16 C86.2091,16 88,17.7909 88,20 Z" id="Path"></path>
            <path d="M104,20 C104,22.2091 102.209,24 100,24 C97.7909,24 96,22.2091 96,20 C96,17.7909 97.7909,16 100,16 C102.209,16 104,17.7909 104,20 Z" id="Path"></path>
            <path d="M120,20 C120,22.2091 118.209,24 116,24 C113.791,24 112,22.2091 112,20 C112,17.7909 113.791,16 116,16 C118.209,16 120,17.7909 120,20 Z" id="Path"></path>
            <path d="M8,36 C8,38.2091 6.20914,40 4,40 C1.79086,40 0,38.2091 0,36 C0,33.7909 1.79086,32 4,32 C6.20914,32 8,33.7909 8,36 Z" id="Path"></path>
            <path d="M24,36 C24,38.2091 22.2091,40 20,40 C17.7909,40 16,38.2091 16,36 C16,33.7909 17.7909,32 20,32 C22.2091,32 24,33.7909 24,36 Z" id="Path"></path>
            <path d="M40,36 C40,38.2091 38.2091,40 36,40 C33.7909,40 32,38.2091 32,36 C32,33.7909 33.7909,32 36,32 C38.2091,32 40,33.7909 40,36 Z" id="Path"></path>
            <path d="M56,36 C56,38.2091 54.2091,40 52,40 C49.7909,40 48,38.2091 48,36 C48,33.7909 49.7909,32 52,32 C54.2091,32 56,33.7909 56,36 Z" id="Path"></path>
            <path d="M72,36 C72,38.2091 70.2091,40 68,40 C65.7909,40 64,38.2091 64,36 C64,33.7909 65.7909,32 68,32 C70.2091,32 72,33.7909 72,36 Z" id="Path"></path>
            <path d="M88,36 C88,38.2091 86.2091,40 84,40 C81.7909,40 80,38.2091 80,36 C80,33.7909 81.7909,32 84,32 C86.2091,32 88,33.7909 88,36 Z" id="Path"></path>
            <path d="M104,36 C104,38.2091 102.209,40 100,40 C97.7909,40 96,38.2091 96,36 C96,33.7909 97.7909,32 100,32 C102.209,32 104,33.7909 104,36 Z" id="Path"></path>
            <path d="M120,36 C120,38.2091 118.209,40 116,40 C113.791,40 112,38.2091 112,36 C112,33.7909 113.791,32 116,32 C118.209,32 120,33.7909 120,36 Z" id="Path"></path>
            <path d="M8,52 C8,54.2091 6.20914,56 4,56 C1.79086,56 0,54.2091 0,52 C0,49.7909 1.79086,48 4,48 C6.20914,48 8,49.7909 8,52 Z" id="Path"></path>
            <path d="M24,52 C24,54.2091 22.2091,56 20,56 C17.7909,56 16,54.2091 16,52 C16,49.7909 17.7909,48 20,48 C22.2091,48 24,49.7909 24,52 Z" id="Path"></path>
            <path d="M40,52 C40,54.2091 38.2091,56 36,56 C33.7909,56 32,54.2091 32,52 C32,49.7909 33.7909,48 36,48 C38.2091,48 40,49.7909 40,52 Z" id="Path"></path>
            <path d="M56,52 C56,54.2091 54.2091,56 52,56 C49.7909,56 48,54.2091 48,52 C48,49.7909 49.7909,48 52,48 C54.2091,48 56,49.7909 56,52 Z" id="Path"></path>
            <path d="M72,52 C72,54.2091 70.2091,56 68,56 C65.7909,56 64,54.2091 64,52 C64,49.7909 65.7909,48 68,48 C70.2091,48 72,49.7909 72,52 Z" id="Path"></path>
            <path d="M88,52 C88,54.2091 86.2091,56 84,56 C81.7909,56 80,54.2091 80,52 C80,49.7909 81.7909,48 84,48 C86.2091,48 88,49.7909 88,52 Z" id="Path"></path>
            <path d="M104,52 C104,54.2091 102.209,56 100,56 C97.7909,56 96,54.2091 96,52 C96,49.7909 97.7909,48 100,48 C102.209,48 104,49.7909 104,52 Z" id="Path"></path>
            <path d="M120,52 C120,54.2091 118.209,56 116,56 C113.791,56 112,54.2091 112,52 C112,49.7909 113.791,48 116,48 C118.209,48 120,49.7909 120,52 Z" id="Path"></path>
            <path d="M8,68 C8,70.2091 6.20914,72 4,72 C1.79086,72 0,70.2091 0,68 C0,65.7909 1.79086,64 4,64 C6.20914,64 8,65.7909 8,68 Z" id="Path"></path>
            <path d="M24,68 C24,70.2091 22.2091,72 20,72 C17.7909,72 16,70.2091 16,68 C16,65.7909 17.7909,64 20,64 C22.2091,64 24,65.7909 24,68 Z" id="Path"></path>
            <path d="M40,68 C40,70.2091 38.2091,72 36,72 C33.7909,72 32,70.2091 32,68 C32,65.7909 33.7909,64 36,64 C38.2091,64 40,65.7909 40,68 Z" id="Path"></path>
            <path d="M56,68 C56,70.2091 54.2091,72 52,72 C49.7909,72 48,70.2091 48,68 C48,65.7909 49.7909,64 52,64 C54.2091,64 56,65.7909 56,68 Z" id="Path"></path>
            <path d="M72,68 C72,70.2091 70.2091,72 68,72 C65.7909,72 64,70.2091 64,68 C64,65.7909 65.7909,64 68,64 C70.2091,64 72,65.7909 72,68 Z" id="Path"></path>
            <path d="M88,68 C88,70.2091 86.2091,72 84,72 C81.7909,72 80,70.2091 80,68 C80,65.7909 81.7909,64 84,64 C86.2091,64 88,65.7909 88,68 Z" id="Path"></path>
            <path d="M104,68 C104,70.2091 102.209,72 100,72 C97.7909,72 96,70.2091 96,68 C96,65.7909 97.7909,64 100,64 C102.209,64 104,65.7909 104,68 Z" id="Path"></path>
            <path d="M120,68 C120,70.2091 118.209,72 116,72 C113.791,72 112,70.2091 112,68 C112,65.7909 113.791,64 116,64 C118.209,64 120,65.7909 120,68 Z" id="Path"></path>
            <path d="M8,84 C8,86.2091 6.20914,88 4,88 C1.79086,88 0,86.2091 0,84 C0,81.7909 1.79086,80 4,80 C6.20914,80 8,81.7909 8,84 Z" id="Path"></path>
            <path d="M24,84 C24,86.2091 22.2091,88 20,88 C17.7909,88 16,86.2091 16,84 C16,81.7909 17.7909,80 20,80 C22.2091,80 24,81.7909 24,84 Z" id="Path"></path>
            <path d="M40,84 C40,86.2091 38.2091,88 36,88 C33.7909,88 32,86.2091 32,84 C32,81.7909 33.7909,80 36,80 C38.2091,80 40,81.7909 40,84 Z" id="Path"></path>
            <path d="M56,84 C56,86.2091 54.2091,88 52,88 C49.7909,88 48,86.2091 48,84 C48,81.7909 49.7909,80 52,80 C54.2091,80 56,81.7909 56,84 Z" id="Path"></path>
            <path d="M72,84 C72,86.2091 70.2091,88 68,88 C65.7909,88 64,86.2091 64,84 C64,81.7909 65.7909,80 68,80 C70.2091,80 72,81.7909 72,84 Z" id="Path"></path>
            <path d="M88,84 C88,86.2091 86.2091,88 84,88 C81.7909,88 80,86.2091 80,84 C80,81.7909 81.7909,80 84,80 C86.2091,80 88,81.7909 88,84 Z" id="Path"></path>
            <path d="M104,84 C104,86.2091 102.209,88 100,88 C97.7909,88 96,86.2091 96,84 C96,81.7909 97.7909,80 100,80 C102.209,80 104,81.7909 104,84 Z" id="Path"></path>
            <path d="M120,84 C120,86.2091 118.209,88 116,88 C113.791,88 112,86.2091 112,84 C112,81.7909 113.791,80 116,80 C118.209,80 120,81.7909 120,84 Z" id="Path"></path>
            <path d="M8,100 C8,102.209 6.20914,104 4,104 C1.79086,104 0,102.209 0,100 C0,97.7909 1.79086,96 4,96 C6.20914,96 8,97.7909 8,100 Z" id="Path"></path>
            <path d="M24,100 C24,102.209 22.2091,104 20,104 C17.7909,104 16,102.209 16,100 C16,97.7909 17.7909,96 20,96 C22.2091,96 24,97.7909 24,100 Z" id="Path"></path>
            <path d="M40,100 C40,102.209 38.2091,104 36,104 C33.7909,104 32,102.209 32,100 C32,97.7909 33.7909,96 36,96 C38.2091,96 40,97.7909 40,100 Z" id="Path"></path>
            <path d="M56,100 C56,102.209 54.2091,104 52,104 C49.7909,104 48,102.209 48,100 C48,97.7909 49.7909,96 52,96 C54.2091,96 56,97.7909 56,100 Z" id="Path"></path>
            <path d="M72,100 C72,102.209 70.2091,104 68,104 C65.7909,104 64,102.209 64,100 C64,97.7909 65.7909,96 68,96 C70.2091,96 72,97.7909 72,100 Z" id="Path"></path>
            <path d="M88,100 C88,102.209 86.2091,104 84,104 C81.7909,104 80,102.209 80,100 C80,97.7909 81.7909,96 84,96 C86.2091,96 88,97.7909 88,100 Z" id="Path"></path>
            <path d="M104,100 C104,102.209 102.209,104 100,104 C97.7909,104 96,102.209 96,100 C96,97.7909 97.7909,96 100,96 C102.209,96 104,97.7909 104,100 Z" id="Path"></path>
            <path d="M120,100 C120,102.209 118.209,104 116,104 C113.791,104 112,102.209 112,100 C112,97.7909 113.791,96 116,96 C118.209,96 120,97.7909 120,100 Z" id="Path"></path>
            <path d="M8,116 C8,118.209 6.20914,120 4,120 C1.79086,120 0,118.209 0,116 C0,113.791 1.79086,112 4,112 C6.20914,112 8,113.791 8,116 Z" id="Path"></path>
            <path d="M24,116 C24,118.209 22.2091,120 20,120 C17.7909,120 16,118.209 16,116 C16,113.791 17.7909,112 20,112 C22.2091,112 24,113.791 24,116 Z" id="Path"></path>
            <path d="M40,116 C40,118.209 38.2091,120 36,120 C33.7909,120 32,118.209 32,116 C32,113.791 33.7909,112 36,112 C38.2091,112 40,113.791 40,116 Z" id="Path"></path>
            <path d="M56,116 C56,118.209 54.2091,120 52,120 C49.7909,120 48,118.209 48,116 C48,113.791 49.7909,112 52,112 C54.2091,112 56,113.791 56,116 Z" id="Path"></path>
            <path d="M72,116 C72,118.209 70.2091,120 68,120 C65.7909,120 64,118.209 64,116 C64,113.791 65.7909,112 68,112 C70.2091,112 72,113.791 72,116 Z" id="Path"></path>
            <path d="M88,116 C88,118.209 86.2091,120 84,120 C81.7909,120 80,118.209 80,116 C80,113.791 81.7909,112 84,112 C86.2091,112 88,113.791 88,116 Z" id="Path"></path>
            <path d="M104,116 C104,118.209 102.209,120 100,120 C97.7909,120 96,118.209 96,116 C96,113.791 97.7909,112 100,112 C102.209,112 104,113.791 104,116 Z" id="Path"></path>
            <path d="M120,116 C120,118.209 118.209,120 116,120 C113.791,120 112,118.209 112,116 C112,113.791 113.791,112 116,112 C118.209,112 120,113.791 120,116 Z" id="Path"></path>
        </g>
    </g>
</svg>