<?xml version="1.0" encoding="UTF-8"?>
<svg width="44px" height="44px" viewBox="0 0 44 44" version="1.1" xmlns="http://www.w3.org/2000/svg" xmlns:xlink="http://www.w3.org/1999/xlink">
    <!-- Generator: Sketch 61.2 (89653) - https://sketch.com -->
    <title>Artboard</title>
    <desc>Created with Sketch.</desc>
    <g id="Artboard" stroke="none" stroke-width="1" fill="none" fill-rule="evenodd">
        <g id="idea-2" transform="translate(6.000000, 0.000000)" fill="#068466" fill-rule="nonzero">
            <path d="M20.4433478,8.22919443 C18.8027985,6.61125401 16.6285098,5.7372727 14.3236016,5.7700342 C12.1052896,5.80091874 10.0109424,6.6860765 8.42636066,8.26238251 C6.84169364,9.83885916 5.945786,11.928514 5.90372501,14.1465701 C5.8568863,16.6141766 6.87786779,18.9805979 8.70500405,20.6389783 C9.40246571,21.2719408 9.80242905,22.1797074 9.80242905,23.1293644 L9.80242905,24.2638167 C9.80242905,24.9955755 10.1482165,25.6477342 10.6844301,26.0668084 L10.6844301,28.6693855 C10.6844301,29.8551983 11.6490175,30.8197003 12.8346596,30.8197003 L16.0553541,30.8197003 C17.2409963,30.8197003 18.2055836,29.855113 18.2055836,28.6694708 L18.2055836,26.0668937 C18.7417973,25.6478195 19.0875847,24.9956608 19.0875847,24.263902 L19.0875847,23.1294497 C19.0875847,22.1824375 19.4923258,21.2704051 20.1980631,20.6272047 C21.9711088,19.0113118 22.9879951,16.7095604 22.9879951,14.3121692 C22.9879951,12.007773 22.0843236,9.8473908 20.4433478,8.22919443 Z M16.0553541,29.1133721 L12.8346596,29.1133721 C12.5898868,29.1133721 12.3907583,28.9142436 12.3907583,28.6694708 L12.3907583,26.5517469 L16.4991701,26.5517469 L16.4991701,28.6694708 L16.4992554,28.6694708 C16.4992554,28.9142436 16.3001269,29.1133721 16.0553541,29.1133721 Z M19.0486804,19.3661428 C17.9889653,20.3319246 17.3812565,21.7035565 17.3812565,23.129535 L17.3812565,24.2639873 C17.3812565,24.5846064 17.1204442,24.8454186 16.7999105,24.8454186 L12.0901033,24.8454186 C11.7695695,24.8454186 11.5087573,24.5845211 11.5087573,24.2639873 L11.5087573,23.129535 C11.5087573,21.6996319 10.9048024,20.3314127 9.85174194,19.3756129 C8.38933333,18.0482602 7.57217275,16.1542359 7.60962665,14.1790756 C7.67881826,10.533932 10.7012374,7.52712568 14.3472343,7.47636242 C14.3801664,7.47593584 14.412672,7.47567989 14.4455188,7.47567989 C16.2543973,7.47567989 17.9556919,8.17254433 19.2451641,9.44427076 C20.5583543,10.7392886 21.2815815,12.4681403 21.2815815,14.3123399 C21.2815815,16.2307647 20.467663,18.0728313 19.0486804,19.3661428 Z" id="Shape"></path>
            <path d="M31.3478942,22.4720014 L28.6975399,17.6306363 L28.6975399,14.3121692 C28.6975399,6.4204012 22.2771387,0 14.3853707,0 C6.49360268,0 0.0732867971,6.4204012 0.0732867971,14.3121692 L0.0732867971,16.7698791 C0.0732867971,19.8229268 0.991035431,22.7433076 2.7303811,25.2343762 L2.7303811,32.2794641 C2.7303811,32.7505814 3.11234268,33.1326282 3.58354521,33.1326282 C4.05474775,33.1326282 4.43670932,32.7505814 4.43670932,32.2794641 L4.43670932,24.9617049 C4.43670932,24.781602 4.37971796,24.6061061 4.2738403,24.4603857 C2.64216393,22.213578 1.77961502,19.5542655 1.77961502,16.7698791 L1.77961502,14.3121692 C1.7795297,7.36127058 7.43455738,1.70632822 14.3853707,1.70632822 C21.336184,1.70632822 26.9912117,7.36127058 26.9912117,14.3121692 L26.9912117,17.848961 C26.9912117,17.992122 27.0272152,18.1330647 27.0960656,18.2586504 L29.8511884,23.2913802 C30.0593605,23.6716355 29.9098861,24.0012981 29.8360021,24.1253481 C29.7623741,24.2490569 29.5449025,24.5358907 29.1143106,24.5358907 C29.1128602,24.5358907 29.1113245,24.5358907 29.1098741,24.5358907 L27.8483004,24.5301745 C27.6177754,24.5282975 27.40329,24.6185623 27.2424685,24.7787012 C27.0816471,24.9387548 26.9912117,25.156397 26.9912117,25.3833386 L26.9912117,29.1909247 C26.9912117,31.2255505 25.3359027,32.8808595 23.3012769,32.8808595 L20.7399929,32.8808595 C19.5776422,32.8808595 18.6319951,33.8265066 18.6319951,34.9889427 L18.6319951,41.5101026 L7.03399683,36.2970139 C6.60408743,36.1036016 6.09918491,36.2956489 5.90602856,36.7253876 C5.7128722,37.1551264 5.90466349,37.6601142 6.33440226,37.8533559 L19.1353619,43.606924 C19.2470411,43.6570901 19.3663134,43.6819172 19.4850739,43.6819172 C19.6470897,43.6819172 19.8083377,43.635761 19.9485126,43.5450696 C20.1915791,43.3878315 20.338238,43.1181463 20.338238,42.828753 L20.338238,34.9887721 C20.338238,34.7672054 20.5184262,34.5870171 20.7399076,34.5870171 L23.3011916,34.5870171 C26.2766868,34.5870171 28.6974546,32.1662493 28.6974546,29.1907541 L28.6974546,26.2402567 L29.1019397,26.2420483 C29.1060349,26.2420483 29.1100448,26.2420483 29.11414,26.2420483 C30.0204562,26.2420483 30.8376168,25.777927 31.3019087,24.9985616 C31.7682482,24.2158689 31.7854821,23.2713309 31.3478942,22.4720014 Z" id="Path"></path>
            <circle id="Oval" cx="3.66084188" cy="35.6187485" r="1"></circle>
        </g>
    </g>
</svg>