<?xml version="1.0" encoding="UTF-8"?>
<svg width="44px" height="44px" viewBox="0 0 44 44" version="1.1" xmlns="http://www.w3.org/2000/svg" xmlns:xlink="http://www.w3.org/1999/xlink">
    <!-- Generator: Sketch 61.2 (89653) - https://sketch.com -->
    <title>Artboard</title>
    <desc>Created with Sketch.</desc>
    <g id="Artboard" stroke="none" stroke-width="1" fill="none" fill-rule="evenodd">
        <g id="shoes" transform="translate(24.000000, 21.000000) rotate(20.000000) translate(-24.000000, -21.000000) translate(2.000000, 10.000000)" fill="#068466" fill-rule="nonzero">
            <path d="M44.0000001,14.9376333 C44.0000001,14.9348833 44.0000001,14.9321333 44.0000001,14.9293833 C43.9954167,13.3639917 43.12,12.265 41.3981333,11.6633 C40.0323,11.1860833 38.2949417,11.0498667 36.4555583,10.905675 C35.3319083,10.8175833 34.1699417,10.7264667 33.121,10.5515667 C31.018625,10.2012167 27.620175,8.30188333 24.6216667,6.62621667 C24.3910944,6.49739444 24.1629667,6.37000833 23.9372833,6.24405833 C23.2604167,5.78499167 22.4048,4.75190833 21.5769583,3.75164167 C20.71905,2.715075 19.8319,1.64330833 18.9424583,0.9273 C17.737225,-0.0428083333 16.6554667,-0.220825 15.726975,0.3982 C13.9569833,1.57813333 13.7115917,3.33400833 13.86275,4.41200833 C13.7349667,4.521275 13.611125,4.631275 13.4904,4.73925833 C12.648625,5.49175 11.922075,6.14166667 10.2666667,6.14166667 C8.08215833,6.14166667 6.770225,3.84000833 6.18264167,2.46803333 C5.7936001,1.55883333 4.77398689,1.09799755 3.83447509,1.40672974 C2.89496328,1.71546193 2.3474449,2.6912715 2.57354167,3.65401667 C3.30284167,6.64574167 2.39204167,12.2903 2.234375,13.21485 L0.1045,16.7643667 C-0.068710842,17.0528566 -0.0233590399,17.4222092 0.2145,17.660225 C1.73928333,19.1849167 4.31869167,20.1785833 7.88131667,20.6135417 C10.69145,20.9565583 13.4316417,20.86755 14.748525,20.8251083 C15.0363583,20.8159417 15.263875,20.8083333 15.3993583,20.8083333 C16.8901333,20.8083333 18.53225,20.9339167 20.4336,21.0793917 C23.126125,21.285 26.476175,21.5416667 30.8,21.5416667 C43.039975,21.5416667 43.9611333,15.2984333 43.9943167,15.0326 C43.9981201,15.0024384 44.0000001,14.9720671 44.0000001,14.9416667 L44.0000001,14.9416667 C44.0000001,14.9402917 44.0000001,14.9390083 44.0000001,14.9376333 Z M16.5403333,1.61846667 C17.3316,1.09083333 18.7671,2.67446667 20.0283417,4.183025 C18.7484,3.58508333 17.6653583,3.20833333 16.8666667,3.20833333 C16.336668,3.20252572 15.8104328,3.29794746 15.3162167,3.489475 C15.3923,2.91573333 15.6805,2.19156667 16.54015,1.61846667 L16.5403333,1.61846667 Z M40.8481333,17.4126333 C39.4280333,18.627125 36.5321917,20.075 30.8,20.075 C26.5321833,20.075 23.213025,19.8209917 20.5461667,19.6166667 C18.61475,19.4689 16.9467833,19.3416667 15.4,19.3416667 C15.2403167,19.3416667 15.0024417,19.3493667 14.7013167,19.3590833 C12.24465,19.4388333 4.98538333,19.6745083 1.6731,17.000775 L3.36783333,14.1761583 C4.97924167,14.0579083 11.4873917,13.677125 15.1680833,14.9040833 C19.476875,16.3403167 26.2313333,17.875 32.2666667,17.875 C36.2809333,17.875 39.9201917,16.8881167 41.9283333,16.2180333 C41.6236093,16.6629866 41.2601982,17.0647553 40.84795,17.41245 L40.8481333,17.4126333 Z M14.6147833,13.2234667 C13.9670218,13.0694173 13.3118634,12.9483228 12.6518333,12.86065 L15.4,10.112025 L16.562975,11.275 L14.6147833,13.2234667 Z M21.5218667,15.1158333 C20.8775417,14.9743917 20.2477,14.8261667 19.6390333,14.6729917 L22,12.312025 L23.162975,13.475 L21.5218667,15.1158333 Z M32.2666667,16.4083333 C29.3084917,16.4083333 26.168175,16.0268167 23.243,15.4692083 L24.7188333,13.993375 C24.8563682,13.8558472 24.9336351,13.6693153 24.9336351,13.4748167 C24.9336351,13.280318 24.8563682,13.0937861 24.7188333,12.9562583 L22.5188333,10.7562583 C22.3813056,10.6187235 22.1947736,10.5414566 22.000275,10.5414566 C21.8057764,10.5414566 21.6192444,10.6187235 21.4817167,10.7562583 L18.0013167,14.2366583 C17.3724833,14.0597417 16.7739,13.8801667 16.211525,13.700775 L18.1188333,11.793375 C18.2563682,11.6558472 18.3336351,11.4693153 18.3336351,11.2748167 C18.3336351,11.080318 18.2563682,10.8937861 18.1188333,10.7562583 L15.9188333,8.55625833 C15.7813056,8.41872348 15.5947736,8.34145661 15.400275,8.34145661 C15.2057764,8.34145661 15.0192444,8.41872348 14.8817167,8.55625833 L10.7713833,12.6665 C7.99498333,12.4629083 5.21748333,12.584 3.80755833,12.6743833 C4.10694167,10.7058417 4.67985833,6.10188333 3.9985,3.30669167 C3.95243154,3.08508901 4.08200016,2.86468717 4.29803557,2.79716871 C4.51407098,2.72965024 4.7460871,2.83704445 4.83440833,3.04544167 C6.53473333,7.015525 8.96775,7.60833333 10.2666667,7.60833333 C12.48225,7.60833333 13.5831667,6.62365 14.46775,5.832475 C15.1908167,5.18576667 15.7618083,4.675 16.8666667,4.675 C17.2326,4.675 17.7530833,4.82120833 18.3729333,5.06495 L17.0814417,6.35644167 L18.1185583,7.39355833 L19.806325,5.70588333 C20.7298667,6.156425 21.75195,6.70963333 22.7662417,7.27164167 L21.4814417,8.55644167 L22.5185583,9.59355833 L24.0980667,8.01405 C25.0745,8.55955833 26.0586333,9.107725 27.020675,9.61711667 L25.8814417,10.7564417 L26.9185583,11.7935583 L28.3910917,10.3211167 C29.11975,10.6819167 29.8258583,11.0065083 30.4954833,11.2757333 L29.5481083,12.2231083 L30.585225,13.260225 L32.0375,11.8080417 C32.3146719,11.8860212 32.5957023,11.9495704 32.8794583,11.9984333 C33.9911917,12.1836917 35.1855167,12.277375 36.340425,12.36785 C39.8539167,12.64285 42.108,12.93765 42.4783333,14.4639 C41.0708833,14.9929083 36.8742917,16.4083333 32.2666667,16.4083333 Z" id="Shape"></path>
        </g>
    </g>
</svg>