<?xml version="1.0" encoding="UTF-8"?>
<svg width="43px" height="44px" viewBox="0 0 43 44" version="1.1" xmlns="http://www.w3.org/2000/svg" xmlns:xlink="http://www.w3.org/1999/xlink">
    <!-- Generator: Sketch 59.1 (86144) - https://sketch.com -->
    <title>target</title>
    <desc>Created with Sketch.</desc>
    <g id="Page-1" stroke="none" stroke-width="1" fill="none" fill-rule="evenodd">
        <g id="target" fill="#FFFFFF" fill-rule="nonzero">
            <path d="M43,22.25 C43,11.075 33.925,2 22.75,2 C19.3,2 15.85,2.9 12.85,4.55 L8.8,0.5 C8.35,0.05 7.75001,-0.024997 7.15001,0.2 C6.55001,0.425 6.25001,0.95 6.25001,1.55 L6.25001,4.7 L5.27501,3.725 C4.97501,3.425 4.52501,3.425 4.22501,3.725 C3.92501,4.025 3.92501,4.475 4.22501,4.775 L5.20001,5.75 L2.05001,5.75 C1.45001,5.75 0.92501,6.125 0.70001,6.65 C0.47501,7.175 0.55001,7.85 1.00001,8.3 L5.05001,12.35 C3.40001,15.35 2.50001,18.8 2.50001,22.25 C2.50001,29 5.87501,35.075 10.975,38.75 L8.65,42.125 C8.425,42.5 8.5,42.95 8.8,43.175 C8.95,43.25 9.1,43.325 9.25,43.325 C9.475,43.325 9.7,43.25 9.85,43.025 L12.25,39.65 C15.325,41.525 18.925,42.575 22.75,42.575 C26.575,42.575 30.175,41.525 33.25,39.65 L35.65,43.025 C35.8,43.25 36.025,43.325 36.25,43.325 C36.4,43.325 36.55,43.25 36.7,43.175 C37.075,42.95 37.15,42.5 36.85,42.125 L34.525,38.75 C39.625,35.075 43,29 43,22.25 Z M7.75001,1.55 L12.55,6.35 C12.85,6.65 13,7.025 13,7.4 L13,11.375 L7.75001,6.125 L7.75001,1.55 Z M2.05001,7.25 L6.70001,7.25 L11.95,12.5 L7.97501,12.5 C7.60001,12.5 7.22501,12.35 6.92501,12.05 L2.05001,7.25 Z M22.75,41 C12.4,41 4.00001,32.6 4.00001,22.25 C4.00001,19.175 4.75001,16.175 6.17501,13.475 C6.70001,13.85 7.30001,14 7.90001,14 L13.375,14 L22.15,22.775 C22.3,22.925 22.525,23 22.675,23 C22.825,23 23.05,22.925 23.2,22.775 C23.50001,22.475 23.50001,22.025 23.2,21.725 L14.50001,12.95 L14.50001,7.475 C14.50001,6.875 14.275,6.275 13.975,5.75 C16.675,4.25 19.675,3.5 22.75,3.5 C33.1,3.5 41.50001,11.9 41.50001,22.25 C41.50001,32.6 33.1,41 22.75,41 Z" id="Shape"></path>
            <path d="M8.425,17.675 C8.5,17.675 8.575,17.75 8.725,17.75 C9.025,17.75 9.325,17.6 9.4,17.3 C9.55,16.85 9.775,16.325 10,15.875 C10.15,15.5 10,15.05 9.7,14.9 C9.325,14.75 8.875,14.9 8.725,15.2 C8.5,15.725 8.2,16.25 8.05,16.775 C7.82498,17.15 8.05,17.525 8.425,17.675 Z" id="Path"></path>
            <path d="M22.75,6.5 C20.275,6.5 17.875,7.1 15.625,8.15 C15.25,8.3 15.1,8.75 15.325,9.125 C15.475,9.5 15.925,9.65 16.3,9.425 C18.325,8.45 20.425,7.925 22.675,7.925 C30.55,7.925 36.925,14.3 36.925,22.175 C36.925,30.05 30.55,36.425 22.675,36.425 C14.8,36.425 8.425,30.05 8.425,22.175 C8.425,21.425 8.5,20.75 8.575,20 C8.65,19.625 8.35,19.175 7.975,19.175 C7.6,19.1 7.15,19.4 7.15,19.775 C7,20.525 7,21.35 7,22.1 C7,30.8 14.05,37.85 22.75,37.85 C31.45,37.85 38.5,30.8 38.5,22.1 C38.5,13.4 31.45,6.5 22.75,6.5 Z" id="Path"></path>
            <path d="M22.75,27.5 C25.675,27.5 28,25.175 28,22.25 C28,19.325 25.675,17 22.75,17 C22.45,17 22.15,17 21.85,17.075 C21.475,17.15 21.175,17.525 21.25,17.975 C21.325,18.35 21.7,18.65 22.15,18.575 C22.375,18.575 22.6,18.5 22.75,18.5 C24.85,18.5 26.5,20.15 26.5,22.25 C26.5,24.35 24.85,26 22.75,26 C20.65,26 19,24.35 19,22.25 C19,22.025 19,21.8 19.075,21.65 C19.15,21.275 18.85,20.825 18.475,20.75 C18.025,20.675 17.65,20.975 17.575,21.35 C17.5,21.65 17.5,21.95 17.5,22.25 C17.5,25.175 19.825,27.5 22.75,27.5 Z M22,30.5 L22,32 C22,32.45 22.3,32.75 22.75,32.75 C23.2,32.75 23.5,32.45 23.5,32 L23.5,30.5 C23.5,30.05 23.2,29.75 22.75,29.75 C22.3,29.75 22,30.05 22,30.5 Z M13,23 L14.5,23 C14.95,23 15.25,22.7 15.25,22.25 C15.25,21.8 14.95,21.5 14.5,21.5 L13,21.5 C12.55,21.5 12.25,21.8 12.25,22.25 C12.25,22.7 12.55,23 13,23 Z M17.5,31.325 C17.65,31.4 17.725,31.4 17.875,31.4 C18.1,31.4 18.4,31.25 18.55,31.025 L19.3,29.75 C19.525,29.375 19.375,28.925 19,28.7 C18.625,28.475 18.175,28.625 17.95,29 L17.2,30.275 C17.05,30.65 17.125,31.1 17.5,31.325 Z M13.9,18.05 L15.175,18.8 C15.325,18.875 15.4,18.875 15.55,18.875 C15.775,18.875 16.075,18.725 16.225,18.5 C16.45,18.125 16.3,17.675 15.925,17.45 L14.65,16.7 C14.275,16.475 13.825,16.625 13.6,17 C13.45,17.375 13.6,17.825 13.9,18.05 Z M15.25,25.7 L13.975,26.45 C13.6,26.675 13.525,27.125 13.675,27.5 C13.825,27.725 14.05,27.875 14.35,27.875 C14.5,27.875 14.575,27.875 14.725,27.8 L16,27.05 C16.375,26.825 16.45,26.375 16.3,26 C16.075,25.625 15.55,25.55 15.25,25.7 Z" id="Shape"></path>
            <path d="M31.75,22.25 C31.75,25.625 29.875,28.7 26.875,30.2 C26.5,30.425 26.35,30.875 26.575,31.175 C26.725,31.4 26.95,31.55 27.25,31.55 C27.4,31.55 27.475,31.55 27.625,31.475 C31.075,29.75 33.25,26.15 33.25,22.25 C33.25,16.475 28.525,11.75 22.75,11.75 C21.1,11.75 19.375,12.125 17.875,12.95 C17.5,13.175 17.35,13.625 17.575,13.925 C17.8,14.3 18.25,14.45 18.55,14.225 C19.825,13.55 21.25,13.175 22.675,13.175 C27.7,13.25 31.75,17.3 31.75,22.25 Z" id="Path"></path>
        </g>
    </g>
</svg>