<svg width="48" height="48" viewBox="0 0 48 48" fill="none" xmlns="http://www.w3.org/2000/svg">
<path d="M41.25 13.5H38.25C37.8375 13.5 37.5 13.8375 37.5 14.25C37.5 14.6625 37.8375 15 38.25 15H41.25C41.6625 15 42 14.6625 42 14.25C42 13.8375 41.6625 13.5 41.25 13.5Z" fill="#068466"/>
<path d="M42.75 6H5.25C4.00875 6 3 7.00875 3 8.25V39.75C3 40.9912 4.00875 42 5.25 42H42.75C43.9912 42 45 40.9912 45 39.75V8.25C45 7.00875 43.9912 6 42.75 6ZM43.5 39.75C43.5 40.1625 43.1625 40.5 42.75 40.5H5.25C4.8375 40.5 4.5 40.1625 4.5 39.75V15H35.25C35.6625 15 36 14.6625 36 14.25C36 13.8375 35.6625 13.5 35.25 13.5H4.5V8.25C4.5 7.8375 4.8375 7.5 5.25 7.5H42.75C43.1625 7.5 43.5 7.8375 43.5 8.25V39.75Z" fill="#068466"/>
<path d="M15 9C14.5875 9 14.25 9.3375 14.25 9.75V11.25C14.25 11.6625 14.5875 12 15 12C15.4125 12 15.75 11.6625 15.75 11.25V9.75C15.75 9.3375 15.4125 9 15 9ZM11.25 9C10.8375 9 10.5 9.3375 10.5 9.75V11.25C10.5 11.6625 10.8375 12 11.25 12C11.6625 12 12 11.6625 12 11.25V9.75C12 9.3375 11.6625 9 11.25 9ZM7.5 9C7.0875 9 6.75 9.3375 6.75 9.75V11.25C6.75 11.6625 7.0875 12 7.5 12C7.9125 12 8.25 11.6625 8.25 11.25V9.75C8.25 9.3375 7.9125 9 7.5 9ZM26.25 9C25.8375 9 25.5 9.3375 25.5 9.75V11.25C25.5 11.6625 25.8375 12 26.25 12C26.6625 12 27 11.6625 27 11.25V9.75C27 9.3375 26.6625 9 26.25 9ZM30 9C29.5875 9 29.25 9.3375 29.25 9.75V11.25C29.25 11.6625 29.5875 12 30 12C30.4125 12 30.75 11.6625 30.75 11.25V9.75C30.75 9.3375 30.4125 9 30 9ZM33.75 9C33.3375 9 33 9.3375 33 9.75V11.25C33 11.6625 33.3375 12 33.75 12C34.1625 12 34.5 11.6625 34.5 11.25V9.75C34.5 9.3375 34.1625 9 33.75 9ZM37.5 12C37.9125 12 38.25 11.6625 38.25 11.25V9.75C38.25 9.3375 37.9125 9 37.5 9C37.0875 9 36.75 9.3375 36.75 9.75V11.25C36.75 11.6625 37.0875 12 37.5 12ZM41.25 9C40.8375 9 40.5 9.3375 40.5 9.75V11.25C40.5 11.6625 40.8375 12 41.25 12C41.6625 12 42 11.6625 42 11.25V9.75C42 9.3375 41.6625 9 41.25 9ZM18.75 9C18.3375 9 18 9.3375 18 9.75V11.25C18 11.6625 18.3375 12 18.75 12C19.1625 12 19.5 11.6625 19.5 11.25V9.75C19.5 9.3375 19.1625 9 18.75 9ZM22.5 9C22.0875 9 21.75 9.3375 21.75 9.75V11.25C21.75 11.6625 22.0875 12 22.5 12C22.9125 12 23.25 11.6625 23.25 11.25V9.75C23.25 9.3375 22.9125 9 22.5 9ZM38.25 18H9.75C9.3375 18 9 18.3375 9 18.75V21.75C9 22.1625 9.3375 22.5 9.75 22.5H38.25C38.6625 22.5 39 22.1625 39 21.75V18.75C39 18.3375 38.6625 18 38.25 18ZM37.5 21H10.5V19.5H37.5V21ZM38.25 25.5H26.25C25.8375 25.5 25.5 25.8375 25.5 26.25V35.25C25.5 35.6625 25.8375 36 26.25 36H38.25C38.6625 36 39 35.6625 39 35.25V26.25C39 25.8375 38.6625 25.5 38.25 25.5ZM37.5 34.5H27V27H37.5V34.5ZM21 30H10.5C9.67125 30 9 29.3287 9 28.5V27C9 26.1712 9.67125 25.5 10.5 25.5H21C21.8287 25.5 22.5 26.1712 22.5 27V28.5C22.5 29.3287 21.8287 30 21 30ZM10.5 27V28.5H21V27H10.5ZM21 36H10.5C9.67125 36 9 35.3287 9 34.5V33C9 32.1712 9.67125 31.5 10.5 31.5H21C21.8287 31.5 22.5 32.1712 22.5 33V34.5C22.5 35.3287 21.8287 36 21 36ZM10.5 33V34.5H21V33H10.5Z" fill="#068466"/>
</svg>
