<?xml version="1.0" encoding="UTF-8"?>
<svg width="42px" height="48px" viewBox="0 0 42 48" version="1.1" xmlns="http://www.w3.org/2000/svg" xmlns:xlink="http://www.w3.org/1999/xlink">
    <!-- Generator: Sketch 59.1 (86144) - https://sketch.com -->
    <title>head</title>
    <desc>Created with Sketch.</desc>
    <g id="Page-1" stroke="none" stroke-width="1" fill="none" fill-rule="evenodd">
        <g id="head" fill="#FFFFFF" fill-rule="nonzero">
            <path d="M41.6662,29.6325 L37.605,17.4375 C37.5375,17.2387 37.5,17.0175 37.4925,16.7812 C37.2525,7.0575 29.37,0 18.75,0 C7.71,0 0,6.78375 0,16.5 C0,21.8962 1.30125,27.4162 3.765,32.46 C4.18875,33.33 4.3575,34.305 4.25625,35.2762 L3.18,45.5137 C3.1125,46.1475 3.31875,46.7812 3.7425,47.2537 C4.17,47.73 4.78125,48 5.415,48 L25.29,48 C25.935,48 26.5537,47.7187 26.9812,47.2312 C27.4087,46.7437 27.6037,46.0987 27.5175,45.4537 L27.12,42.435 L31.1587,42.885 C31.1625,42.885 31.1625,42.885 31.1625,42.885 L33.3375,43.125 C34.3912,43.2412 35.4562,42.9037 36.2512,42.1912 C37.0462,41.4825 37.5,40.4625 37.5,39.3975 L37.5,32.5912 C37.5,32.2087 37.7887,31.89 38.1675,31.8487 L40.41,31.5975 C40.8637,31.5487 41.265,31.2975 41.5087,30.915 C41.7562,30.5325 41.8125,30.0637 41.6662,29.6325 Z M15,1.7775 C15.4912,1.7025 15.9975,1.63875 16.5187,1.59375 C16.5675,1.96125 16.8675,2.25 17.25,2.25 L18.75,2.25 C19.155,2.25 19.4775,1.93125 19.4925,1.53 C20.0025,1.54875 20.505,1.57875 21,1.63125 L21,15.5737 C20.07,15.2063 19.0575,15 18,15 C16.9425,15 15.93,15.2063 15,15.5737 L15,1.7775 Z M24.75,23.25 C24.75,26.97 21.7237,30 18,30 C14.2762,30 11.25,26.97 11.25,23.25 C11.25,19.53 14.2762,16.5 18,16.5 C21.7237,16.5 24.75,19.53 24.75,23.25 Z M38.0025,30.3562 C36.8587,30.4837 36,31.4437 36,32.5912 L36,39.3975 C36,40.0387 35.7262,40.65 35.25,41.0737 C34.7737,41.5012 34.14,41.7037 33.5025,41.6362 L25.38,40.7325 L23.3325,40.5037 C22.9275,40.4587 22.5487,40.755 22.5037,41.1675 C22.4587,41.58 22.755,41.9512 23.1675,41.9962 L25.5825,42.2625 L26.0325,45.6525 C26.0625,45.87 25.9987,46.08 25.8525,46.245 C25.71,46.41 25.5075,46.5 25.29,46.5 L5.415,46.5 C5.20125,46.5 5.0025,46.41 4.86,46.2525 C4.71375,46.0912 4.65,45.885 4.66875,45.6712 L5.74875,35.4337 C5.88,34.1812 5.6625,32.925 5.115,31.8037 C2.74875,26.9587 1.5,21.6675 1.5,16.5 C1.5,10.2375 5.2575,3.93 13.5,2.05875 L13.5,16.3425 C11.2462,17.82 9.75,20.3625 9.75,23.25 C9.75,27.7987 13.4513,31.5 18,31.5 C18.5662,31.5 19.1213,31.4437 19.6537,31.3312 L20.43,33.6637 C20.8912,35.0475 22.125,36.045 23.5762,36.2062 L27.8362,36.6787 C28.1437,38.0062 29.3287,39 30.75,39 C32.4037,39 33.75,37.6537 33.75,36 C33.75,34.3462 32.4037,33 30.75,33 C29.3812,33 28.2413,33.9225 27.8775,35.175 L23.7412,34.7175 C22.8712,34.62 22.1325,34.02 21.855,33.1912 L21.0862,30.8925 C24.1125,29.67 26.25,26.7075 26.25,23.25 C26.25,20.3625 24.7537,17.82 22.5,16.3425 L22.5,1.84125 C30.3225,3.2625 35.805,9.12375 35.9925,16.8187 C36.0037,17.2013 36.0675,17.5725 36.18,17.9137 L40.245,30.1087 L38.0025,30.3562 Z M29.25,36 C29.25,35.1712 29.9212,34.5 30.75,34.5 C31.5787,34.5 32.25,35.1712 32.25,36 C32.25,36.8287 31.5787,37.5 30.75,37.5 C29.9212,37.5 29.25,36.8287 29.25,36 Z" id="Shape"></path>
            <path d="M14.25,23.25 C14.25,25.3162 15.9337,27 18,27 C20.0663,27 21.75,25.3162 21.75,23.25 C21.75,21.1837 20.0663,19.5 18,19.5 C15.9337,19.5 14.25,21.1837 14.25,23.25 Z M20.25,23.25 C20.25,24.4912 19.2413,25.5 18,25.5 C16.7587,25.5 15.75,24.4912 15.75,23.25 C15.75,22.0087 16.7587,21 18,21 C19.2413,21 20.25,22.0087 20.25,23.25 Z M17.25,9.75 L18.75,9.75 C19.1663,9.75 19.5,9.4125 19.5,9 C19.5,8.5875 19.1663,8.25 18.75,8.25 L17.25,8.25 C16.8337,8.25 16.5,8.5875 16.5,9 C16.5,9.4125 16.8337,9.75 17.25,9.75 Z M17.25,6 L18.75,6 C19.1663,6 19.5,5.6625 19.5,5.25 C19.5,4.8375 19.1663,4.5 18.75,4.5 L17.25,4.5 C16.8337,4.5 16.5,4.8375 16.5,5.25 C16.5,5.6625 16.8337,6 17.25,6 Z M19.5,12.75 C19.5,12.3375 19.1663,12 18.75,12 L17.25,12 C16.8337,12 16.5,12.3375 16.5,12.75 C16.5,13.1625 16.8337,13.5 17.25,13.5 L18.75,13.5 C19.1663,13.5 19.5,13.1625 19.5,12.75 Z" id="Shape"></path>
        </g>
    </g>
</svg>