<svg width="48" height="48" viewBox="0 0 48 48" fill="none" xmlns="http://www.w3.org/2000/svg">
<path d="M44.6662 29.6325L40.605 17.4375C40.5375 17.2387 40.5 17.0175 40.4925 16.7812C40.2525 7.0575 32.37 0 21.75 0C10.71 0 3 6.78375 3 16.5C3 21.8962 4.30125 27.4162 6.765 32.46C7.18875 33.33 7.3575 34.305 7.25625 35.2762L6.18 45.5137C6.1125 46.1475 6.31875 46.7812 6.7425 47.2537C7.17 47.73 7.78125 48 8.415 48H28.29C28.935 48 29.5537 47.7187 29.9812 47.2312C30.4087 46.7437 30.6037 46.0987 30.5175 45.4537L30.12 42.435L34.1587 42.885C34.1625 42.885 34.1625 42.885 34.1625 42.885L36.3375 43.125C37.3912 43.2412 38.4562 42.9037 39.2512 42.1912C40.0462 41.4825 40.5 40.4625 40.5 39.3975V32.5912C40.5 32.2087 40.7887 31.89 41.1675 31.8487L43.41 31.5975C43.8637 31.5487 44.265 31.2975 44.5087 30.915C44.7562 30.5325 44.8125 30.0637 44.6662 29.6325ZM18 1.7775C18.4912 1.7025 18.9975 1.63875 19.5187 1.59375C19.5675 1.96125 19.8675 2.25 20.25 2.25H21.75C22.155 2.25 22.4775 1.93125 22.4925 1.53C23.0025 1.54875 23.505 1.57875 24 1.63125V15.5737C23.07 15.2063 22.0575 15 21 15C19.9425 15 18.93 15.2063 18 15.5737V1.7775ZM27.75 23.25C27.75 26.97 24.7237 30 21 30C17.2762 30 14.25 26.97 14.25 23.25C14.25 19.53 17.2762 16.5 21 16.5C24.7237 16.5 27.75 19.53 27.75 23.25ZM41.0025 30.3562C39.8587 30.4837 39 31.4437 39 32.5912V39.3975C39 40.0387 38.7262 40.65 38.25 41.0737C37.7737 41.5012 37.14 41.7037 36.5025 41.6362L28.38 40.7325L26.3325 40.5037C25.9275 40.4587 25.5487 40.755 25.5037 41.1675C25.4587 41.58 25.755 41.9512 26.1675 41.9962L28.5825 42.2625L29.0325 45.6525C29.0625 45.87 28.9987 46.08 28.8525 46.245C28.71 46.41 28.5075 46.5 28.29 46.5H8.415C8.20125 46.5 8.0025 46.41 7.86 46.2525C7.71375 46.0912 7.65 45.885 7.66875 45.6712L8.74875 35.4337C8.88 34.1812 8.6625 32.925 8.115 31.8037C5.74875 26.9587 4.5 21.6675 4.5 16.5C4.5 10.2375 8.2575 3.93 16.5 2.05875V16.3425C14.2462 17.82 12.75 20.3625 12.75 23.25C12.75 27.7987 16.4513 31.5 21 31.5C21.5662 31.5 22.1213 31.4437 22.6537 31.3312L23.43 33.6637C23.8912 35.0475 25.125 36.045 26.5762 36.2062L30.8362 36.6787C31.1437 38.0062 32.3287 39 33.75 39C35.4037 39 36.75 37.6537 36.75 36C36.75 34.3462 35.4037 33 33.75 33C32.3812 33 31.2413 33.9225 30.8775 35.175L26.7412 34.7175C25.8712 34.62 25.1325 34.02 24.855 33.1912L24.0862 30.8925C27.1125 29.67 29.25 26.7075 29.25 23.25C29.25 20.3625 27.7537 17.82 25.5 16.3425V1.84125C33.3225 3.2625 38.805 9.12375 38.9925 16.8187C39.0037 17.2013 39.0675 17.5725 39.18 17.9137L43.245 30.1087L41.0025 30.3562ZM32.25 36C32.25 35.1712 32.9212 34.5 33.75 34.5C34.5787 34.5 35.25 35.1712 35.25 36C35.25 36.8287 34.5787 37.5 33.75 37.5C32.9212 37.5 32.25 36.8287 32.25 36Z" fill="#068466"/>
<path d="M17.25 23.25C17.25 25.3162 18.9337 27 21 27C23.0663 27 24.75 25.3162 24.75 23.25C24.75 21.1837 23.0663 19.5 21 19.5C18.9337 19.5 17.25 21.1837 17.25 23.25ZM23.25 23.25C23.25 24.4912 22.2413 25.5 21 25.5C19.7587 25.5 18.75 24.4912 18.75 23.25C18.75 22.0087 19.7587 21 21 21C22.2413 21 23.25 22.0087 23.25 23.25ZM20.25 9.75H21.75C22.1663 9.75 22.5 9.4125 22.5 9C22.5 8.5875 22.1663 8.25 21.75 8.25H20.25C19.8337 8.25 19.5 8.5875 19.5 9C19.5 9.4125 19.8337 9.75 20.25 9.75ZM20.25 6H21.75C22.1663 6 22.5 5.6625 22.5 5.25C22.5 4.8375 22.1663 4.5 21.75 4.5H20.25C19.8337 4.5 19.5 4.8375 19.5 5.25C19.5 5.6625 19.8337 6 20.25 6ZM22.5 12.75C22.5 12.3375 22.1663 12 21.75 12H20.25C19.8337 12 19.5 12.3375 19.5 12.75C19.5 13.1625 19.8337 13.5 20.25 13.5H21.75C22.1663 13.5 22.5 13.1625 22.5 12.75Z" fill="#068466"/>
</svg>
