<?xml version="1.0" encoding="UTF-8"?>
<svg width="44px" height="44px" viewBox="0 0 44 44" version="1.1" xmlns="http://www.w3.org/2000/svg" xmlns:xlink="http://www.w3.org/1999/xlink">
    <!-- Generator: Sketch 61.2 (89653) - https://sketch.com -->
    <title>Artboard</title>
    <desc>Created with Sketch.</desc>
    <g id="Artboard" stroke="none" stroke-width="1" fill="none" fill-rule="evenodd">
        <g id="care" transform="translate(0.000000, 3.000000)" fill="#068466" fill-rule="nonzero">
            <path d="M26.2584609,31.9446016 L22.9241719,31.9446016 C22.449625,31.9446016 22.0648828,32.3292578 22.0648828,32.8038906 C22.0648828,33.2785234 22.449625,33.6631797 22.9241719,33.6631797 L26.2584609,33.6631797 C26.7730547,33.6631797 27.1917422,34.0817812 27.1917422,34.596375 C27.1917422,35.1109687 26.7731406,35.5295703 26.2584609,35.5295703 L17.2828047,35.5295703 C15.9335859,35.5295703 14.6648047,34.9347109 13.8019922,33.8974453 L11.6555313,31.3174297 C10.5037969,29.9329766 8.82758594,29.1221562 7.03407031,29.0708516 L7.03407031,23.9947812 L10.1979453,23.9947812 C11.7582266,23.9947812 13.2355781,24.5915312 14.3580078,25.6750312 L18.9907266,30.1467891 C19.3182344,30.4629531 19.3335313,30.9923281 19.0247578,31.3267969 C18.7100547,31.667625 18.1758672,31.6898828 17.8339219,31.3764687 L14.1967891,28.0424375 C13.8471094,27.7218047 13.3034687,27.7453516 12.9828359,28.0952031 C12.6621172,28.4450547 12.68575,28.9886094 13.0356016,29.3092422 L16.6727344,32.6432734 C17.1632656,33.0928984 17.7839922,33.3149609 18.4031719,33.3149609 C19.0944531,33.3149609 19.7837578,33.0381562 20.2876094,32.4923672 C21.2248438,31.4770156 21.1785234,29.8701562 20.1843125,28.9104062 L15.5515938,24.4386484 C14.1070703,23.0442266 12.2057891,22.2762891 10.1979453,22.2762891 L6.86717969,22.2762891 C6.54388281,21.5111016 5.78565625,20.9727031 4.90410938,20.9727031 L0.859289063,20.9727031 C0.384742188,20.9727031 0,21.3573594 0,21.8319922 L0,28.1154844 C0,28.5900312 0.384742188,28.9747734 0.859289063,28.9747734 C1.33383594,28.9747734 1.71857813,28.5901172 1.71857813,28.1154844 L1.71857813,22.6911953 L4.90419531,22.6911953 C5.13107031,22.6911953 5.31557813,22.8757891 5.31557813,23.1025781 L5.31557813,29.9898672 C5.31557813,30.2166562 5.13107031,30.40125 4.90419531,30.40125 L4.01173438,30.40125 C3.5371875,30.40125 3.15244531,30.7859062 3.15244531,31.2605391 C3.15244531,31.7350859 3.5371875,32.1198281 4.01173438,32.1198281 L4.90410938,32.1198281 C5.79751563,32.1198281 6.56364844,31.5667344 6.87946875,30.7851328 C8.2190625,30.7927812 9.47710156,31.3860078 10.3344141,32.4165703 L12.480875,34.9965859 C13.6712813,36.4275312 15.4214844,37.2481484 17.2828047,37.2481484 L26.2584609,37.2481484 C27.7206016,37.2481484 28.9102344,36.0586016 28.9102344,34.596375 C28.9102344,33.1341484 27.7206016,31.9446016 26.2584609,31.9446016 Z" id="Path"></path>
            <path d="M43.1407109,7.98651562 C42.6661641,7.98651562 42.2814219,8.37117187 42.2814219,8.84580469 L42.2814219,14.6057656 L39.0958047,14.6057656 C38.8689297,14.6057656 38.6844219,14.4211719 38.6844219,14.1943828 L38.6844219,7.30709375 C38.6844219,7.08030469 38.8689297,6.89571094 39.0958047,6.89571094 L39.9251875,6.89571094 C40.3997344,6.89571094 40.7844766,6.51105469 40.7844766,6.03642187 C40.7844766,5.561875 40.3997344,5.17713281 39.9251875,5.17713281 L39.0958047,5.17713281 C38.2023984,5.17713281 37.4362656,5.73022656 37.1204453,6.51182813 C35.7808516,6.50417969 34.5228125,5.91095312 33.6655,4.88039062 L31.5190391,2.30046094 C30.3287187,0.869515625 28.5784297,0.0488125 26.7170234,0.0488125 L17.7415391,0.0488125 C16.2793984,0.0488125 15.0897656,1.23835937 15.0897656,2.7005 C15.0897656,4.16264062 16.2793984,5.3521875 17.7415391,5.3521875 L21.4117578,5.3521875 C21.8863047,5.3521875 22.2710469,4.96753125 22.2710469,4.49289844 C22.2710469,4.01826562 21.8863047,3.63360938 21.4117578,3.63360938 L17.7415391,3.63360938 C17.2269453,3.63360938 16.8082578,3.21500781 16.8082578,2.70041406 C16.8082578,2.18590625 17.2268594,1.76721875 17.7415391,1.76721875 L26.7171094,1.76721875 C28.0664141,1.76721875 29.3351953,2.36207813 30.1980078,3.39934375 L32.3444687,5.97927344 C33.4961172,7.36372656 35.1724141,8.17454688 36.9659297,8.2259375 L36.9659297,13.3020078 L33.8020547,13.3020078 C32.2417734,13.3020078 30.7644219,12.7052578 29.6419922,11.6217578 L25.0092734,7.15 C24.6817656,6.83383594 24.6664687,6.30454687 24.9752422,5.96999219 C25.2899453,5.62907813 25.8241328,5.60690625 26.1660781,5.92032031 L29.8032969,9.25435156 C30.1531484,9.57498437 30.6965312,9.5514375 31.0173359,9.20158594 C31.3379687,8.85173438 31.3143359,8.30817969 30.9644844,7.98754687 L27.3272656,4.65360156 C26.2891406,3.70201562 24.6676719,3.76982031 23.7123906,4.80450781 C22.7751562,5.81994531 22.8214766,7.42680469 23.8156875,8.38646875 L28.4484062,12.8582266 C29.8929297,14.2526484 31.7942109,15.0205859 33.8020547,15.0205859 L37.1328203,15.0205859 C37.4561172,15.7857734 38.2143437,16.3241719 39.0958906,16.3241719 L43.1407969,16.3241719 C43.6153437,16.3241719 44.0000859,15.9395156 44.0000859,15.4648828 L44.0000859,8.84563281 C44.0000859,8.37117187 43.6152578,7.98651562 43.1407109,7.98651562 Z" id="Path"></path>
            <path d="M27.7438906,29.2740078 C27.5484688,28.8415703 27.0405781,28.6486406 26.6084844,28.8439766 C26.1732969,29.0334687 25.9742656,29.5398125 26.1637578,29.9748281 C26.3045234,30.2982109 26.6204297,30.4912266 26.9519766,30.4912266 C27.0665313,30.4912266 27.1828906,30.4681953 27.2946094,30.4195547 C27.2982188,30.4180078 27.3095625,30.4129375 27.3130859,30.4113906 C27.7456094,30.2160547 27.9392266,29.7065312 27.7438906,29.2740078 Z" id="Path"></path>
            <path d="M29.8798672,27.8273359 C29.5989375,27.4457734 29.0589922,27.3663672 28.677,27.6460078 C28.2941484,27.9263359 28.2109609,28.4640469 28.4912891,28.8468984 C28.6596406,29.0767813 28.9205469,29.1986406 29.1852344,29.1986406 C29.3614062,29.1986406 29.5392109,29.1446719 29.6921797,29.0326953 C29.6935547,29.03175 29.7016328,29.0257344 29.7029219,29.0247891 C30.0835391,28.7429141 30.1607109,28.2087266 29.8798672,27.8273359 Z" id="Path"></path>
            <path d="M25.3415937,30.2386562 C25.2437109,29.7758828 24.7893594,29.4795703 24.3261563,29.5753047 C23.8634687,29.6671719 23.5609688,30.1153359 23.6496562,30.5793984 C23.728375,30.9910391 24.0885391,31.2774688 24.4927031,31.2774688 C24.5461562,31.2774688 24.6005547,31.2723984 24.6549531,31.262 C24.6605391,31.2608828 24.6746328,31.2580469 24.6803047,31.2568437 C25.1443672,31.1584453 25.4398203,30.7028047 25.3415937,30.2386562 Z" id="Path"></path>
            <path d="M31.6749297,25.9583672 C31.3225859,25.6405703 30.779375,25.6685 30.4614063,26.0209297 C30.4571953,26.0256562 30.4473125,26.0368281 30.4431875,26.0415547 C30.133125,26.4008594 30.1731719,26.9434688 30.5324766,27.2534453 C30.6948125,27.3935234 30.8945313,27.4621016 31.0933047,27.4621016 C31.3319531,27.4621016 31.5692266,27.3632734 31.7388672,27.1704297 C32.0552891,26.818 32.0268437,26.2757344 31.6749297,25.9583672 Z M31.1950547,26.6890866 L31.0994922,26.5964531 L31.2029609,26.6964531 L31.1950547,26.6890866 Z" id="Shape"></path>
            <path d="M33.8620391,21.3015859 C33.4079453,21.1638281 32.9275547,21.4229297 32.7897969,21.8771094 C32.6502344,22.3306875 32.9047813,22.8115078 33.3583594,22.9510703 C33.4424922,22.9770234 33.5275703,22.9893125 33.6112734,22.9893125 C33.9785703,22.9893125 34.318625,22.7519531 34.4322344,22.3825078 L34.4358438,22.3707344 C34.5735156,21.9165547 34.3161328,21.4392578 33.8620391,21.3015859 Z" id="Path"></path>
            <path d="M34.9626406,16.8666953 C34.96075,16.8557812 34.9586875,16.8448672 34.9563672,16.8339531 C34.8593438,16.3695469 34.4042188,16.0724609 33.9399844,16.1693125 C33.4773828,16.2657344 33.1799531,16.7181094 33.2731094,17.180625 C33.3519141,17.5906328 33.7112188,17.8775781 34.1158125,17.8775781 C34.1660859,17.8775781 34.2171328,17.8731953 34.2682656,17.864 C34.7354219,17.7803828 35.0462578,17.3338516 34.9626406,16.8666953 Z" id="Path"></path>
            <path d="M34.1745938,18.7311094 C33.7033984,18.6895156 33.2848828,19.0388516 33.2432031,19.5115078 C33.2424297,19.5198437 33.2412266,19.5367734 33.2407109,19.5451094 C33.2128672,20.0188828 33.5742344,20.4255391 34.0480078,20.4533828 C34.0651953,20.4544141 34.0822109,20.4549297 34.0992266,20.4549297 C34.5466172,20.4549297 34.9225938,20.1089453 34.9555078,19.658375 C34.9946953,19.1874375 34.6459609,18.7727031 34.1745938,18.7311094 Z" id="Path"></path>
            <path d="M33.0208828,23.7466797 C32.6083828,23.5128437 32.0836484,23.6577344 31.8497266,24.0706641 L31.8377812,24.0921484 C31.6115078,24.5092891 31.7642188,25.034625 32.1812734,25.2608984 C32.3125,25.3320547 32.4536953,25.3658281 32.5928281,25.3658281 C32.8961016,25.3658281 33.1890625,25.2049531 33.3441797,24.9189531 L32.5972109,24.49425 L33.3447812,24.9179219 C33.5787891,24.5049922 33.4338125,23.9806875 33.0208828,23.7466797 Z" id="Path"></path>
            <path d="M17.4362891,7.38203125 C17.2241094,6.9575 16.7077109,6.78536719 16.2835234,6.99771875 L16.275875,7.0015 C15.8513437,7.21376563 15.6831641,7.72792969 15.8954297,8.152375 C16.0457344,8.45307031 16.3502969,8.62614844 16.6660313,8.62614844 C16.7961406,8.62614844 16.9281406,8.59675781 17.0519766,8.53488281 C17.4765078,8.32270313 17.6484687,7.8065625 17.4362891,7.38203125 Z" id="Path"></path>
            <path d="M19.9222031,6.66557031 C19.8103984,6.20451563 19.3465078,5.92109375 18.8845937,6.03298438 C18.8806406,6.03392969 18.8684375,6.03702344 18.8644844,6.03805469 C18.4048906,6.15647656 18.1265391,6.6254375 18.244875,7.08494531 C18.3448203,7.47269531 18.6926094,7.73042188 19.0749453,7.73042188 C19.1457578,7.73042188 19.2177734,7.72157031 19.2896172,7.70309375 C19.7507578,7.59128906 20.0340078,7.12679688 19.9222031,6.66557031 Z" id="Path"></path>
            <path d="M15.1641875,8.62116406 C14.8670156,8.25189062 14.3259531,8.19388281 13.95625,8.49036719 L14.4889766,9.16454687 L13.9536719,8.49234375 C13.5824219,8.78796875 13.5211484,9.32851562 13.8166875,9.69976562 C13.9865,9.91289062 14.2368359,10.0238359 14.4895781,10.0238359 C14.6770937,10.0238359 14.8660703,9.96264844 15.0242812,9.83675 L15.035625,9.82764063 C15.4042969,9.52986719 15.4613594,8.9904375 15.1641875,8.62116406 Z" id="Path"></path>
            <path d="M10.5826016,14.7349297 C10.1247266,14.6101484 9.65241406,14.8799062 9.52754688,15.3377812 C9.52539844,15.3456016 9.52127344,15.3618437 9.51929688,15.36975 C9.40757813,15.8308047 9.69082813,16.2944375 10.1517969,16.4064141 C10.2198594,16.4229141 10.2879219,16.4308203 10.3549531,16.4308203 C10.7404688,16.4308203 11.09075,16.1692266 11.188375,15.7793281 C11.3061953,15.3248906 11.0369531,14.8588516 10.5826016,14.7349297 Z" id="Path"></path>
            <path d="M10.0351797,17.2596875 C9.56020312,17.2333047 9.15509375,17.5941563 9.12759375,18.0678438 C9.12690625,18.0789297 9.12647656,18.0899297 9.12613281,18.1009297 C9.11221094,18.5750469 9.48526562,18.9701016 9.95946875,18.9842813 C9.96823437,18.9845391 9.97682812,18.9847109 9.98550781,18.9847109 C10.4461328,18.9847109 10.82675,18.6192188 10.8437656,18.1565313 C10.86525,17.6873984 10.5053437,17.2870156 10.0351797,17.2596875 Z" id="Path"></path>
            <path d="M11.6640391,12.3866875 C11.2437188,12.1661719 10.7243984,12.3281641 10.5039688,12.7483984 L10.4899609,12.7760703 C10.2805313,13.2017188 10.4561875,13.7157969 10.88175,13.9253984 C11.0036094,13.9854688 11.1327734,14.0138281 11.2602188,14.0138281 C11.5757813,14.0138281 11.8795703,13.8392031 12.0301328,13.5384219 C12.2441172,13.1196484 12.0815234,12.6057422 11.6640391,12.3866875 Z" id="Path"></path>
            <path d="M13.2158984,10.3192891 C12.85075,10.0161875 12.309,10.0664609 12.0058984,10.4315234 C12.0017734,10.4365938 11.9923203,10.4482813 11.9881953,10.4533516 C11.6936016,10.8252031 11.7565937,11.3647188 12.1282734,11.6594844 C12.2860547,11.7846953 12.4742578,11.8453672 12.6612578,11.8453672 C12.9133125,11.8453672 13.1632187,11.7350234 13.3329453,11.5234453 C13.6306328,11.1584688 13.5790703,10.6208438 13.2158984,10.3192891 Z" id="Path"></path>
            <path d="M11.0062734,20.5414687 C10.9226563,20.0743125 10.4758672,19.7634766 10.0089688,19.8471797 C9.5418125,19.9308828 9.23097656,20.3773281 9.31459375,20.8444844 L9.31614063,20.8529063 C9.3905625,21.2682422 9.75124219,21.5567344 10.1586719,21.5567344 C10.2094609,21.5567344 10.2609375,21.5522656 10.3126719,21.5429844 C10.7798281,21.4593672 11.0899766,21.008625 11.0062734,20.5414687 Z" id="Path"></path>
            <path d="M24.9504062,14.0185547 C23.8319297,14.0185547 22.7956094,14.4797812 22.0571484,15.2581172 C21.3186016,14.4797813 20.2823672,14.0185547 19.1638906,14.0185547 C16.9636328,14.0185547 15.1736406,15.8085469 15.1736406,18.0088047 C15.1736406,19.1960313 15.6972578,20.3133906 16.6100859,21.0744531 C16.6155859,21.0790938 16.6212578,21.0836484 16.6269297,21.0882031 L21.5237344,24.9650156 C21.6799687,25.0887656 21.8685156,25.1505547 22.0570625,25.1505547 C22.2464687,25.1505547 22.435875,25.0881641 22.5924531,24.9633828 L27.6967109,20.8976797 C27.7217187,20.8778281 27.7455234,20.8565156 27.768125,20.834 C28.5242891,20.0798984 28.9406562,19.0765781 28.9406562,18.0088047 C28.9406562,15.8085469 27.1506641,14.0185547 24.9504062,14.0185547 Z M26.585625,19.5858438 L22.0556016,23.1941875 L17.7028672,19.7481797 C17.1875859,19.3147109 16.8922187,18.6814375 16.8922187,18.0089766 C16.8922187,16.7562656 17.9112656,15.7371328 19.1638906,15.7371328 C20.0860859,15.7371328 20.9101406,16.2879062 21.2633437,17.1402344 C21.3964609,17.4612109 21.7097031,17.6705547 22.0571484,17.6705547 C22.4045937,17.6705547 22.7178359,17.4612969 22.8509531,17.1402344 C23.2041562,16.2879062 24.0282109,15.7371328 24.9504063,15.7371328 C26.2030313,15.7371328 27.2221641,16.7562656 27.2221641,18.0088906 C27.2221641,18.6020312 26.9964062,19.1602813 26.585625,19.5858438 Z" id="Shape"></path>
            <circle id="Oval" cx="0.859289063" cy="31.260625" r="1"></circle>
            <circle id="Oval" cx="43.140625" cy="6.03625" r="1"></circle>
        </g>
    </g>
</svg>