<svg width="48" height="48" viewBox="0 0 48 48" fill="none" xmlns="http://www.w3.org/2000/svg">
<path d="M45 23.25C45 12.075 35.925 3 24.75 3C21.3 3 17.85 3.9 14.85 5.55L10.8 1.5C10.35 1.05 9.75001 0.975003 9.15001 1.2C8.55001 1.425 8.25001 1.95 8.25001 2.55V5.7L7.27501 4.725C6.97501 4.425 6.52501 4.425 6.22501 4.725C5.92501 5.025 5.92501 5.475 6.22501 5.775L7.20001 6.75H4.05001C3.45001 6.75 2.92501 7.125 2.70001 7.65C2.47501 8.175 2.55001 8.85 3.00001 9.3L7.05001 13.35C5.40001 16.35 4.50001 19.8 4.50001 23.25C4.50001 30 7.87501 36.075 12.975 39.75L10.65 43.125C10.425 43.5 10.5 43.95 10.8 44.175C10.95 44.25 11.1 44.325 11.25 44.325C11.475 44.325 11.7 44.25 11.85 44.025L14.25 40.65C17.325 42.525 20.925 43.575 24.75 43.575C28.575 43.575 32.175 42.525 35.25 40.65L37.65 44.025C37.8 44.25 38.025 44.325 38.25 44.325C38.4 44.325 38.55 44.25 38.7 44.175C39.075 43.95 39.15 43.5 38.85 43.125L36.525 39.75C41.625 36.075 45 30 45 23.25ZM9.75001 2.55L14.55 7.35C14.85 7.65 15 8.025 15 8.4V12.375L9.75001 7.125V2.55ZM4.05001 8.25H8.70001L13.95 13.5H9.97501C9.60001 13.5 9.22501 13.35 8.92501 13.05L4.05001 8.25ZM24.75 42C14.4 42 6.00001 33.6 6.00001 23.25C6.00001 20.175 6.75001 17.175 8.17501 14.475C8.70001 14.85 9.30001 15 9.90001 15H15.375L24.15 23.775C24.3 23.925 24.525 24 24.675 24C24.825 24 25.05 23.925 25.2 23.775C25.5 23.475 25.5 23.025 25.2 22.725L16.5 13.95V8.475C16.5 7.875 16.275 7.275 15.975 6.75C18.675 5.25 21.675 4.5 24.75 4.5C35.1 4.5 43.5 12.9 43.5 23.25C43.5 33.6 35.1 42 24.75 42Z" fill="#068466"/>
<path d="M10.425 18.675C10.5 18.675 10.575 18.75 10.725 18.75C11.025 18.75 11.325 18.6 11.4 18.3C11.55 17.85 11.775 17.325 12 16.875C12.15 16.5 12 16.05 11.7 15.9C11.325 15.75 10.875 15.9 10.725 16.2C10.5 16.725 10.2 17.25 10.05 17.775C9.82498 18.15 10.05 18.525 10.425 18.675Z" fill="#068466"/>
<path d="M24.75 7.5C22.275 7.5 19.875 8.1 17.625 9.15C17.25 9.3 17.1 9.75 17.325 10.125C17.475 10.5 17.925 10.65 18.3 10.425C20.325 9.45 22.425 8.925 24.675 8.925C32.55 8.925 38.925 15.3 38.925 23.175C38.925 31.05 32.55 37.425 24.675 37.425C16.8 37.425 10.425 31.05 10.425 23.175C10.425 22.425 10.5 21.75 10.575 21C10.65 20.625 10.35 20.175 9.975 20.175C9.6 20.1 9.15 20.4 9.15 20.775C9 21.525 9 22.35 9 23.1C9 31.8 16.05 38.85 24.75 38.85C33.45 38.85 40.5 31.8 40.5 23.1C40.5 14.4 33.45 7.5 24.75 7.5Z" fill="#068466"/>
<path d="M24.75 28.5C27.675 28.5 30 26.175 30 23.25C30 20.325 27.675 18 24.75 18C24.45 18 24.15 18 23.85 18.075C23.475 18.15 23.175 18.525 23.25 18.975C23.325 19.35 23.7 19.65 24.15 19.575C24.375 19.575 24.6 19.5 24.75 19.5C26.85 19.5 28.5 21.15 28.5 23.25C28.5 25.35 26.85 27 24.75 27C22.65 27 21 25.35 21 23.25C21 23.025 21 22.8 21.075 22.65C21.15 22.275 20.85 21.825 20.475 21.75C20.025 21.675 19.65 21.975 19.575 22.35C19.5 22.65 19.5 22.95 19.5 23.25C19.5 26.175 21.825 28.5 24.75 28.5ZM24 31.5V33C24 33.45 24.3 33.75 24.75 33.75C25.2 33.75 25.5 33.45 25.5 33V31.5C25.5 31.05 25.2 30.75 24.75 30.75C24.3 30.75 24 31.05 24 31.5ZM15 24H16.5C16.95 24 17.25 23.7 17.25 23.25C17.25 22.8 16.95 22.5 16.5 22.5H15C14.55 22.5 14.25 22.8 14.25 23.25C14.25 23.7 14.55 24 15 24ZM19.5 32.325C19.65 32.4 19.725 32.4 19.875 32.4C20.1 32.4 20.4 32.25 20.55 32.025L21.3 30.75C21.525 30.375 21.375 29.925 21 29.7C20.625 29.475 20.175 29.625 19.95 30L19.2 31.275C19.05 31.65 19.125 32.1 19.5 32.325ZM15.9 19.05L17.175 19.8C17.325 19.875 17.4 19.875 17.55 19.875C17.775 19.875 18.075 19.725 18.225 19.5C18.45 19.125 18.3 18.675 17.925 18.45L16.65 17.7C16.275 17.475 15.825 17.625 15.6 18C15.45 18.375 15.6 18.825 15.9 19.05ZM17.25 26.7L15.975 27.45C15.6 27.675 15.525 28.125 15.675 28.5C15.825 28.725 16.05 28.875 16.35 28.875C16.5 28.875 16.575 28.875 16.725 28.8L18 28.05C18.375 27.825 18.45 27.375 18.3 27C18.075 26.625 17.55 26.55 17.25 26.7Z" fill="#068466"/>
<path d="M33.75 23.25C33.75 26.625 31.875 29.7 28.875 31.2C28.5 31.425 28.35 31.875 28.575 32.175C28.725 32.4 28.95 32.55 29.25 32.55C29.4 32.55 29.475 32.55 29.625 32.475C33.075 30.75 35.25 27.15 35.25 23.25C35.25 17.475 30.525 12.75 24.75 12.75C23.1 12.75 21.375 13.125 19.875 13.95C19.5 14.175 19.35 14.625 19.575 14.925C19.8 15.3 20.25 15.45 20.55 15.225C21.825 14.55 23.25 14.175 24.675 14.175C29.7 14.25 33.75 18.3 33.75 23.25Z" fill="#068466"/>
</svg>
