<?xml version="1.0" encoding="UTF-8"?>
<svg width="42px" height="36px" viewBox="0 0 42 36" version="1.1" xmlns="http://www.w3.org/2000/svg" xmlns:xlink="http://www.w3.org/1999/xlink">
    <!-- Generator: Sketch 59.1 (86144) - https://sketch.com -->
    <title>web</title>
    <desc>Created with Sketch.</desc>
    <g id="Page-1" stroke="none" stroke-width="1" fill="none" fill-rule="evenodd">
        <g id="web" fill="#FFFFFF" fill-rule="nonzero">
            <path d="M38.25,7.5 L35.25,7.5 C34.8375,7.5 34.5,7.8375 34.5,8.25 C34.5,8.6625 34.8375,9 35.25,9 L38.25,9 C38.6625,9 39,8.6625 39,8.25 C39,7.8375 38.6625,7.5 38.25,7.5 Z" id="Path"></path>
            <path d="M39.75,0 L2.25,0 C1.00875,0 0,1.00875 0,2.25 L0,33.75 C0,34.9912 1.00875,36 2.25,36 L39.75,36 C40.9912,36 42,34.9912 42,33.75 L42,2.25 C42,1.00875 40.9912,0 39.75,0 Z M40.5,33.75 C40.5,34.1625 40.1625,34.5 39.75,34.5 L2.25,34.5 C1.8375,34.5 1.5,34.1625 1.5,33.75 L1.5,9 L32.25,9 C32.6625,9 33,8.6625 33,8.25 C33,7.8375 32.6625,7.5 32.25,7.5 L1.5,7.5 L1.5,2.25 C1.5,1.8375 1.8375,1.5 2.25,1.5 L39.75,1.5 C40.1625,1.5 40.5,1.8375 40.5,2.25 L40.5,33.75 Z" id="Shape"></path>
            <path d="M12,3 C11.5875,3 11.25,3.3375 11.25,3.75 L11.25,5.25 C11.25,5.6625 11.5875,6 12,6 C12.4125,6 12.75,5.6625 12.75,5.25 L12.75,3.75 C12.75,3.3375 12.4125,3 12,3 Z M8.25,3 C7.8375,3 7.5,3.3375 7.5,3.75 L7.5,5.25 C7.5,5.6625 7.8375,6 8.25,6 C8.6625,6 9,5.6625 9,5.25 L9,3.75 C9,3.3375 8.6625,3 8.25,3 Z M4.5,3 C4.0875,3 3.75,3.3375 3.75,3.75 L3.75,5.25 C3.75,5.6625 4.0875,6 4.5,6 C4.9125,6 5.25,5.6625 5.25,5.25 L5.25,3.75 C5.25,3.3375 4.9125,3 4.5,3 Z M23.25,3 C22.8375,3 22.5,3.3375 22.5,3.75 L22.5,5.25 C22.5,5.6625 22.8375,6 23.25,6 C23.6625,6 24,5.6625 24,5.25 L24,3.75 C24,3.3375 23.6625,3 23.25,3 Z M27,3 C26.5875,3 26.25,3.3375 26.25,3.75 L26.25,5.25 C26.25,5.6625 26.5875,6 27,6 C27.4125,6 27.75,5.6625 27.75,5.25 L27.75,3.75 C27.75,3.3375 27.4125,3 27,3 Z M30.75,3 C30.3375,3 30,3.3375 30,3.75 L30,5.25 C30,5.6625 30.3375,6 30.75,6 C31.1625,6 31.5,5.6625 31.5,5.25 L31.5,3.75 C31.5,3.3375 31.1625,3 30.75,3 Z M34.5,6 C34.9125,6 35.25,5.6625 35.25,5.25 L35.25,3.75 C35.25,3.3375 34.9125,3 34.5,3 C34.0875,3 33.75,3.3375 33.75,3.75 L33.75,5.25 C33.75,5.6625 34.0875,6 34.5,6 Z M38.25,3 C37.8375,3 37.5,3.3375 37.5,3.75 L37.5,5.25 C37.5,5.6625 37.8375,6 38.25,6 C38.6625,6 39,5.6625 39,5.25 L39,3.75 C39,3.3375 38.6625,3 38.25,3 Z M15.75,3 C15.3375,3 15,3.3375 15,3.75 L15,5.25 C15,5.6625 15.3375,6 15.75,6 C16.1625,6 16.5,5.6625 16.5,5.25 L16.5,3.75 C16.5,3.3375 16.1625,3 15.75,3 Z M19.5,3 C19.0875,3 18.75,3.3375 18.75,3.75 L18.75,5.25 C18.75,5.6625 19.0875,6 19.5,6 C19.9125,6 20.25,5.6625 20.25,5.25 L20.25,3.75 C20.25,3.3375 19.9125,3 19.5,3 Z M35.25,12 L6.75,12 C6.3375,12 6,12.3375 6,12.75 L6,15.75 C6,16.1625 6.3375,16.5 6.75,16.5 L35.25,16.5 C35.6625,16.5 36,16.1625 36,15.75 L36,12.75 C36,12.3375 35.6625,12 35.25,12 Z M34.5,15 L7.5,15 L7.5,13.5 L34.5,13.5 L34.5,15 Z M35.25,19.5 L23.25,19.5 C22.8375,19.5 22.5,19.8375 22.5,20.25 L22.5,29.25 C22.5,29.6625 22.8375,30 23.25,30 L35.25,30 C35.6625,30 36,29.6625 36,29.25 L36,20.25 C36,19.8375 35.6625,19.5 35.25,19.5 Z M34.5,28.5 L24,28.5 L24,21 L34.5,21 L34.5,28.5 Z M18,24 L7.5,24 C6.67125,24 6,23.3287 6,22.5 L6,21 C6,20.1712 6.67125,19.5 7.5,19.5 L18,19.5 C18.8287,19.5 19.5,20.1712 19.5,21 L19.5,22.5 C19.5,23.3287 18.8287,24 18,24 Z M7.5,21 L7.5,22.5 L18,22.5 L18,21 L7.5,21 Z M18,30 L7.5,30 C6.67125,30 6,29.3287 6,28.5 L6,27 C6,26.1712 6.67125,25.5 7.5,25.5 L18,25.5 C18.8287,25.5 19.5,26.1712 19.5,27 L19.5,28.5 C19.5,29.3287 18.8287,30 18,30 Z M7.5,27 L7.5,28.5 L18,28.5 L18,27 L7.5,27 Z" id="Shape"></path>
        </g>
    </g>
</svg>